<svg id="Layer_1" data-name="Layer 1" xmlns="http://www.w3.org/2000/svg" xmlns:xlink="http://www.w3.org/1999/xlink" viewBox="0 0 2400 900"><defs><clipPath id="clip-path"><rect x="107.8" y="95.4" width="2155.9" height="698.64" fill="none"/></clipPath></defs><g clip-path="url(#clip-path)"><path d="M1063.6,779.9a19.2,19.2,0,0,0,5.1,1.6,23.4,23.4,0,0,0,5.7.7,20.8,20.8,0,0,0,6.3-1,12,12,0,0,0,4.9-3.2,8.1,8.1,0,0,0,1.9-5.6c0-2.8-.8-4.8-2.4-6.2a12.1,12.1,0,0,0-6.7-2.4l-3.6-.3a9.6,9.6,0,0,1-3.6-.8,2.1,2.1,0,0,1-1.2-2.1,2.5,2.5,0,0,1,1.5-2.4,7.8,7.8,0,0,1,4.1-.9,20.1,20.1,0,0,1,5.3.8,19.5,19.5,0,0,1,5.1,2.1v-6.5a15.1,15.1,0,0,0-4.7-1.6,28.8,28.8,0,0,0-5.9-.6,16.8,16.8,0,0,0-6,1,9.1,9.1,0,0,0-4.5,3.1,7.6,7.6,0,0,0-1.7,5.2c0,5.2,2.9,8.1,8.9,8.6l3.7.5a6.5,6.5,0,0,1,3.5.8,2.6,2.6,0,0,1,1.2,2.4,2.7,2.7,0,0,1-1.6,2.5,9.8,9.8,0,0,1-4.2.8,24.5,24.5,0,0,1-11.1-2.7ZM1045,757.3a5.1,5.1,0,0,1,4.3,1.8q1.5,1.6,1.5,5.4h-11.5q.2-7.2,5.7-7.2m0-5.8a14.1,14.1,0,0,0-6.9,1.6,11,11,0,0,0-4.6,4.7,15.4,15.4,0,0,0-1.7,7.3v3.6c0,4.3,1.3,7.7,3.7,10s6,3.6,10.5,3.6a28,28,0,0,0,6.3-.6,26.6,26.6,0,0,0,5.3-2.1v-5.8a17.4,17.4,0,0,1-5,1.9,29.2,29.2,0,0,1-5.4.5c-5,0-7.6-2.2-7.8-6.7h18.9v-4.7q0-6.4-3.6-9.9c-2.4-2.3-5.7-3.4-9.7-3.4m-25.9,17.7a8.1,8.1,0,0,1-1.6,5.4,5.6,5.6,0,0,1-4.5,1.9,6.1,6.1,0,0,1-4.7-2.1,7.8,7.8,0,0,1-1.8-5.2v-4.7a7.1,7.1,0,0,1,1.9-5.2,6.3,6.3,0,0,1,9.1-.1c1.1,1.2,1.6,3,1.6,5.4Zm-4.2-17.7a9.8,9.8,0,0,0-8.4,4.1v-3.4h-7.3v41.2h7.3V778.2a9.7,9.7,0,0,0,8.2,4.1c3.9,0,6.8-1.2,8.9-3.4s3.2-5.6,3.2-10v-4c0-4.2-1-7.5-3.1-9.9s-5-3.5-8.8-3.5M978,776.8c-3,0-4.4-1.2-4.4-3.6a3.1,3.1,0,0,1,1.4-3,10.3,10.3,0,0,1,4.5-.8h5v.9c0,2.3-.6,4-1.8,5a7.3,7.3,0,0,1-4.7,1.5m1.2-25.3a19,19,0,0,0-11.2,3.1v6.7a15.8,15.8,0,0,1,4.8-2.5,17.7,17.7,0,0,1,5.2-.8,8.1,8.1,0,0,1,4.3.9,3.7,3.7,0,0,1,1.8,2.1,11.2,11.2,0,0,1,.4,3.5h-5.9c-8.1,0-12.2,3-12.2,9.2A8,8,0,0,0,969,780a10,10,0,0,0,7,2.3c4,0,6.8-1.4,8.5-4v3.2h7.3V763.1c0-3.6-.9-6.4-2.7-8.5s-5.1-3.1-9.9-3.1m-28.6,0c-4,0-7.1,1.5-9.1,4.7V740.9h-7.4v40.6h7.4V765.6a8.5,8.5,0,0,1,1.7-5.6,5.6,5.6,0,0,1,4.6-1.9,5.2,5.2,0,0,1,4.2,1.8c1,1.1,1.5,3,1.5,5.4v16.2h7.3V763.2c0-3.8-.8-6.7-2.6-8.7s-4.3-3-7.6-3m-46.2,28.4a18.4,18.4,0,0,0,5,1.6,24.7,24.7,0,0,0,5.8.7,21.9,21.9,0,0,0,6.3-1,12.3,12.3,0,0,0,4.8-3.2,8.1,8.1,0,0,0,1.9-5.6,8,8,0,0,0-2.3-6.2,12.8,12.8,0,0,0-6.8-2.4l-3.6-.3a9.6,9.6,0,0,1-3.6-.8,2.2,2.2,0,0,1-1.1-2.1,2.4,2.4,0,0,1,1.4-2.4,8,8,0,0,1,4.1-.9,21.4,21.4,0,0,1,5.4.8,22.8,22.8,0,0,1,5.1,2.1v-6.5a16.1,16.1,0,0,0-4.7-1.6,29.1,29.1,0,0,0-6-.6,17.2,17.2,0,0,0-6,1,9.6,9.6,0,0,0-4.5,3.1,8.1,8.1,0,0,0-1.7,5.2c0,5.2,3,8.1,8.9,8.6l3.8.5a6.7,6.7,0,0,1,3.5.8,3,3,0,0,1-.4,4.9,10.3,10.3,0,0,1-4.3.8,23.8,23.8,0,0,1-11-2.7Zm-28.1-28.4c-4,0-7,1.5-9,4.7V740.9h-7.4v40.6h7.4V765.6c0-2.4.5-4.3,1.7-5.6a5.5,5.5,0,0,1,4.5-1.9,5.2,5.2,0,0,1,4.2,1.8c1,1.1,1.5,3,1.5,5.4v16.2h7.4V763.2c0-3.8-.9-6.7-2.6-8.7s-4.3-3-7.7-3M846,769.2a8.7,8.7,0,0,1-1.6,5.4,5.9,5.9,0,0,1-4.5,1.9,5.9,5.9,0,0,1-4.7-2.1,7.8,7.8,0,0,1-1.8-5.2v-4.7a7.5,7.5,0,0,1,1.8-5.2,6.1,6.1,0,0,1,4.5-2,5.9,5.9,0,0,1,4.6,1.9,7.8,7.8,0,0,1,1.7,5.4Zm-4.3-17.7a9.6,9.6,0,0,0-8.3,4.1v-3.4H826v41.2h7.4V778.2a9.4,9.4,0,0,0,8.1,4.1c3.9,0,6.9-1.2,9-3.4s3.1-5.6,3.1-10v-4c0-4.2-1-7.5-3.1-9.9s-4.9-3.5-8.8-3.5m-34.8,22.4-7.4-21.7h-7.8l11.7,30.6-3.8,10.6H807l4-12.2,10.7-29h-7.6Zm-29.3-.2c0,2.9.7,5.1,2,6.5s3.5,2.1,6.4,2.1a12.3,12.3,0,0,0,4.4-.7v-5.9a9.6,9.6,0,0,1-2.7.4,2.3,2.3,0,0,1-2.2-1,6.6,6.6,0,0,1-.6-3.4V740.9h-7.3Zm-21.3,2.2a5.4,5.4,0,0,1-4.4-1.8,7.6,7.6,0,0,1-1.6-5.3v-4.5c0-2.3.5-4.1,1.6-5.2a5.9,5.9,0,0,1,4.6-1.8,6.1,6.1,0,0,1,4.2,1.7,7.4,7.4,0,0,1,2.2,4.5v5.1a7.9,7.9,0,0,1-1.9,5.2,5.9,5.9,0,0,1-4.7,2.1m6.6-20.3a9.7,9.7,0,0,0-8.4-4.1c-3.9,0-6.8,1.2-8.8,3.5s-3.1,5.7-3.1,9.9v3.4c0,4.4,1,7.7,3.1,10s4.9,3.4,8.8,3.4a9.8,9.8,0,0,0,8.4-4.5v2.4a8.9,8.9,0,0,1-2,6.2c-1.2,1.4-3.4,2.1-6.3,2.1a23.7,23.7,0,0,1-5.2-.6,24.4,24.4,0,0,1-5-1.5v6.3a25.4,25.4,0,0,0,4.7,1.4,22.6,22.6,0,0,0,5.4.5c5,0,8.9-1.2,11.6-3.7s4.1-6,4.1-10.4V752.2h-7.3Zm-60.4,24.3a18.4,18.4,0,0,0,5,1.6,24.7,24.7,0,0,0,5.8.7,21.9,21.9,0,0,0,6.3-1,11.6,11.6,0,0,0,4.8-3.2,8.1,8.1,0,0,0,1.9-5.6,8,8,0,0,0-2.3-6.2,12.4,12.4,0,0,0-6.7-2.4l-3.6-.3a8.7,8.7,0,0,1-3.6-.8,2.1,2.1,0,0,1-1.2-2.1,2.6,2.6,0,0,1,1.4-2.4,8.2,8.2,0,0,1,4.2-.9,21.3,21.3,0,0,1,5.3.8,22.8,22.8,0,0,1,5.1,2.1v-6.5a16.1,16.1,0,0,0-4.7-1.6,29.1,29.1,0,0,0-6-.6,17.2,17.2,0,0,0-6,1,10.1,10.1,0,0,0-4.5,3.1,8.1,8.1,0,0,0-1.7,5.2c0,5.2,3,8.1,8.9,8.6l3.8.5a6.7,6.7,0,0,1,3.5.8,2.6,2.6,0,0,1,1.2,2.4,2.8,2.8,0,0,1-1.6,2.5,10.3,10.3,0,0,1-4.3.8,24.1,24.1,0,0,1-11-2.7Zm-14.1-28.4c-4.7,0-8.2,1.2-10.7,3.6s-3.6,5.8-3.6,10v3.6c0,4.3,1.2,7.7,3.6,10s5.8,3.6,10.3,3.6a16.6,16.6,0,0,0,9.1-2.3v-6.1a16.3,16.3,0,0,1-8.4,2.4,7.4,7.4,0,0,1-5.2-1.9,7.8,7.8,0,0,1-1.9-5.5v-4c0-2.5.6-4.3,1.9-5.6a7.2,7.2,0,0,1,5.3-1.8,16.3,16.3,0,0,1,8.5,2.4v-6.4a18,18,0,0,0-8.9-2m-20.5-12h-7.6v7.8h7.6Zm-.1,12.7h-7.4v29.3h7.4Zm-21.3,17a8.7,8.7,0,0,1-1.6,5.4,5.9,5.9,0,0,1-4.5,1.9,5.9,5.9,0,0,1-4.7-2.1,7.8,7.8,0,0,1-1.8-5.2v-4.7a7.5,7.5,0,0,1,1.8-5.2,6.1,6.1,0,0,1,4.6-2,5.7,5.7,0,0,1,4.5,1.9,7.8,7.8,0,0,1,1.7,5.4Zm-4.3-17.7a9.6,9.6,0,0,0-8.3,4.1V740.9h-7.4v40.6h7.4v-3.7a9.5,9.5,0,0,0,8.3,4.5c3.9,0,6.9-1.2,8.9-3.4s3-5.6,3-10v-4q0-6.3-3-9.9c-2.1-2.3-5-3.5-8.9-3.5m-36.9,25.3c-2.9,0-4.4-1.2-4.4-3.6a3,3,0,0,1,1.5-3,9.5,9.5,0,0,1,4.4-.8h5v.9c0,2.3-.6,4-1.8,5a7.2,7.2,0,0,1-4.7,1.5m1.3-25.3c-4.6,0-8.3,1-11.2,3.1v6.7a15.8,15.8,0,0,1,4.8-2.5,17,17,0,0,1,5.1-.8,7.9,7.9,0,0,1,4.3.9,3.1,3.1,0,0,1,1.8,2.1,11.2,11.2,0,0,1,.4,3.5h-5.9c-8.1,0-12.1,3-12.1,9.2a7.9,7.9,0,0,0,2.5,6.3,10.3,10.3,0,0,0,7.1,2.3c3.9,0,6.7-1.4,8.4-4v3.2h7.4V763.1c0-3.6-.9-6.4-2.7-8.5s-5.1-3.1-9.9-3.1m-28.5,22.2c0,2.9.7,5.1,2.1,6.5s3.5,2.1,6.3,2.1a12,12,0,0,0,4.4-.7v-5.9a8.3,8.3,0,0,1-2.6.4c-1.1,0-1.9-.3-2.2-1a6.6,6.6,0,0,1-.6-3.4V740.9h-7.4Zm-17.1,0c0,2.9.7,5.1,2.1,6.5s3.4,2.1,6.3,2.1a12.3,12.3,0,0,0,4.4-.7v-5.9a9.1,9.1,0,0,1-2.7.4,2.3,2.3,0,0,1-2.2-1c-.4-.6-.5-1.7-.5-3.4V740.9H561Zm-19,.2-7.3-21.7h-7.8l11.6,30.6-3.8,10.6h7.5l4-12.2,10.7-29h-7.6ZM495.7,779a24.8,24.8,0,0,0,12.6,3.1,19.1,19.1,0,0,0,11.3-3.2c2.9-2.1,4.4-5.2,4.4-9.4s-.9-6-2.9-7.9-4.7-3.2-8.3-3.6l-3.8-.5c-2.3-.3-3.9-.8-4.8-1.6a4.5,4.5,0,0,1-1.4-3.7c0-3.7,2.6-5.5,7.7-5.5a18,18,0,0,1,6,1,21.6,21.6,0,0,1,5.7,2.8v-7.4a17.2,17.2,0,0,0-5.3-2.1,30.1,30.1,0,0,0-6.8-.8,19.7,19.7,0,0,0-7.5,1.4,11.8,11.8,0,0,0-5.4,4.1,12.8,12.8,0,0,0,.6,14.6,11.7,11.7,0,0,0,7.7,3.6l4,.6c2.6.3,4.3.8,5.3,1.6s1.5,2,1.5,3.9a5,5,0,0,1-1.9,4.2,9.1,9.1,0,0,1-5.6,1.5,23.7,23.7,0,0,1-13.1-4ZM471,752.2h-7.4v29.3H471V768a10.1,10.1,0,0,1,2.1-6.7,6.2,6.2,0,0,1,5.4-2.6H480v-7.3a9.6,9.6,0,0,0-5.3,1.5,11,11,0,0,0-3.7,4Zm-26.9,5.1a5.1,5.1,0,0,1,4.3,1.8q1.5,1.6,1.5,5.4H438.4q.2-7.2,5.7-7.2m0-5.8a14.1,14.1,0,0,0-6.9,1.6,11,11,0,0,0-4.6,4.7,15.4,15.4,0,0,0-1.7,7.3v3.6c0,4.3,1.2,7.7,3.7,10s6,3.6,10.5,3.6a29.3,29.3,0,0,0,6.3-.6,26.6,26.6,0,0,0,5.3-2.1v-5.8a17.4,17.4,0,0,1-5,1.9,29.2,29.2,0,0,1-5.4.5c-5,0-7.6-2.2-7.9-6.7h19v-4.7q0-6.4-3.6-9.9c-2.4-2.3-5.7-3.4-9.7-3.4m-19.4-12h-7.5v7.8h7.5Zm-.1,12.7h-7.3v29.3h7.3Zm-21.2,0H396v29.3h7.4V768a10.7,10.7,0,0,1,2-6.7,6.5,6.5,0,0,1,5.5-2.6h1.5v-7.3a9.6,9.6,0,0,0-5.3,1.5,11,11,0,0,0-3.7,4Zm-21.3,0h-7.4v29.3h7.4V768a10.1,10.1,0,0,1,2.1-6.7,6.2,6.2,0,0,1,5.4-2.6h1.5v-7.3a9.1,9.1,0,0,0-5.2,1.5,10.5,10.5,0,0,0-3.8,4Zm-28.6,24.6c-2.9,0-4.4-1.2-4.4-3.6a3,3,0,0,1,1.5-3,9.8,9.8,0,0,1,4.4-.8h5v.9c0,2.3-.6,4-1.8,5a7.2,7.2,0,0,1-4.7,1.5m1.3-25.3c-4.5,0-8.3,1-11.2,3.1v6.7a15.8,15.8,0,0,1,4.8-2.5,17,17,0,0,1,5.1-.8,7.9,7.9,0,0,1,4.3.9,3.1,3.1,0,0,1,1.8,2.1,11.2,11.2,0,0,1,.4,3.5h-5.9c-8.1,0-12.1,3-12.1,9.2a7.9,7.9,0,0,0,2.5,6.3,10.4,10.4,0,0,0,7.1,2.3c3.9,0,6.8-1.4,8.4-4v3.2h7.4V763.1c0-3.6-.9-6.4-2.7-8.5s-5.1-3.1-9.9-3.1m-17-8.9a16.1,16.1,0,0,0-4.5-1.8,30.4,30.4,0,0,0-6.3-.7,19.5,19.5,0,0,0-9.2,2.2,15.1,15.1,0,0,0-6.1,6.4,21.4,21.4,0,0,0-2.2,10.2v4.9a20.7,20.7,0,0,0,2.2,10.1,13.8,13.8,0,0,0,6.1,6.3,19.2,19.2,0,0,0,9.2,2.1,28.8,28.8,0,0,0,5.9-.6,15,15,0,0,0,4.8-1.6v-6.8A13.1,13.1,0,0,1,333,775a24.8,24.8,0,0,1-5.4.6c-6.9,0-10.4-3.8-10.4-11.4v-5.7q0-5.8,2.7-8.7c1.8-2,4.4-2.9,7.6-2.9a18.5,18.5,0,0,1,5.8.8,10.6,10.6,0,0,1,4.5,2.3ZM290.2,776a3.9,3.9,0,0,1-3.1-1c-.7-.7-1-2-1-3.7V758h7.1v-5.8h-7.1v-8.4h-7.3v8.4h-4.7V758h4.7v14.3c0,3.2.8,5.7,2.5,7.4s4.1,2.6,7.3,2.6l2.6-.2,2.4-.4v-6a15.8,15.8,0,0,1-3.4.3m-28.4-24.5c-4.7,0-8.2,1.2-10.7,3.6a13.8,13.8,0,0,0-3.7,10v3.6c0,4.3,1.2,7.7,3.7,10s5.8,3.6,10.3,3.6a16.6,16.6,0,0,0,9.1-2.3v-6.1a16.3,16.3,0,0,1-8.4,2.4,7.2,7.2,0,0,1-5.2-1.9,7.4,7.4,0,0,1-1.9-5.5v-4c0-2.5.6-4.3,1.9-5.6a7.2,7.2,0,0,1,5.3-1.8,16.3,16.3,0,0,1,8.5,2.4v-6.4a18.3,18.3,0,0,0-8.9-2m-32.6,5.8a5.2,5.2,0,0,1,4.3,1.8q1.4,1.6,1.5,5.4H223.5q.1-7.2,5.7-7.2m0-5.8a14.1,14.1,0,0,0-6.9,1.6,11,11,0,0,0-4.6,4.7,15.4,15.4,0,0,0-1.7,7.3v3.6c0,4.3,1.2,7.7,3.7,10s5.9,3.6,10.5,3.6a21.4,21.4,0,0,0,11.6-2.7v-5.8a16.9,16.9,0,0,1-5.1,1.9,27.3,27.3,0,0,1-5.3.5c-5,0-7.6-2.2-7.9-6.7h18.9v-4.7q0-6.4-3.6-9.9c-2.4-2.3-5.6-3.4-9.6-3.4m-25.9.7H196v29.3h7.3V768a11.4,11.4,0,0,1,2.1-6.7,6.5,6.5,0,0,1,5.4-2.6h1.5v-7.3a9.3,9.3,0,0,0-5.2,1.5,11.3,11.3,0,0,0-3.8,4Zm-21.3,0h-7.3v29.3H182V768a11.4,11.4,0,0,1,2.1-6.7,6.5,6.5,0,0,1,5.5-2.6h1.5v-7.3a9.6,9.6,0,0,0-5.3,1.5,11.3,11.3,0,0,0-3.8,4Zm-33.8,12.9a8.7,8.7,0,0,1,1.7-5.8,5.7,5.7,0,0,1,4.6-2,5.9,5.9,0,0,1,4.7,2,8.7,8.7,0,0,1,1.7,5.8v3.6a8.7,8.7,0,0,1-1.7,5.8,5.9,5.9,0,0,1-4.7,2,5.7,5.7,0,0,1-4.6-2,8.7,8.7,0,0,1-1.7-5.8Zm-7.5,3.6a14.2,14.2,0,0,0,1.8,7.4,11.4,11.4,0,0,0,4.9,4.6,15.1,15.1,0,0,0,7.1,1.6,14.6,14.6,0,0,0,7.1-1.6,11.1,11.1,0,0,0,5-4.6,14.2,14.2,0,0,0,1.8-7.4v-3.6a14.6,14.6,0,0,0-1.8-7.5,11.7,11.7,0,0,0-5-4.6,15.8,15.8,0,0,0-7.1-1.5,16.4,16.4,0,0,0-7.1,1.5,12,12,0,0,0-4.9,4.6,14.6,14.6,0,0,0-1.8,7.5Zm-4.6-26.1a16.1,16.1,0,0,0-4.5-1.8,30.4,30.4,0,0,0-6.3-.7,19.5,19.5,0,0,0-9.2,2.2,15.1,15.1,0,0,0-6.1,6.4,21.4,21.4,0,0,0-2.2,10.2v4.9a20.7,20.7,0,0,0,2.2,10.1,13.8,13.8,0,0,0,6.1,6.3,19.2,19.2,0,0,0,9.2,2.1,28.8,28.8,0,0,0,5.9-.6,15,15,0,0,0,4.8-1.6v-6.8a13.1,13.1,0,0,1-4.7,1.7,24.8,24.8,0,0,1-5.4.6c-6.9,0-10.4-3.8-10.4-11.4v-5.7q0-5.8,2.7-8.7c1.8-2,4.4-2.9,7.6-2.9a18.5,18.5,0,0,1,5.8.8,10.6,10.6,0,0,1,4.5,2.3Z" fill="#522651"/><path d="M2263.2,579.2h-47v13.1h28.4L2215.2,630v11.7h48.5V628.5h-30.3l29.8-37.9ZM2109,606.9c0-12.5,2.7-22.4,8.2-29.6s15.3-10.8,29.4-10.8c10.8,0,18.5,2.2,23,6.7s6.7,10.8,6.7,19-1.5,13.7-4.7,17.6-8,5.8-14.5,5.8-9.6-1.3-12.2-3.9-4-6.2-4-10.7a24.7,24.7,0,0,1,1.7-9.5h-13.5a13.8,13.8,0,0,0-2,5.1,35.7,35.7,0,0,0-.7,7.4c0,8.1,2.6,14.4,7.8,19s12.9,6.8,22.9,6.8c11.7,0,20.5-3.2,26.4-9.7s8.9-15.8,8.9-27.9-3.8-22.3-11.3-29.3-19-10.6-34.5-10.6c-18.6,0-32.1,4.9-40.8,14.7s-12.9,23.3-12.9,40.5v3.4c0,20.1,5.3,34.3,15.9,42.7s25.8,12.7,45.6,12.7h34.1V652h-32.4q-23.7,0-35.4-9.3c-7.8-6.2-11.7-16.9-11.7-32ZM2011.3,591h-13.8v39.2h13.8Zm40.2,23.1c0,11.5-2.8,20.7-8.5,27.6s-14.3,10.3-25.9,10.3h-19.6v14.3h19.6c16.2,0,28.7-4.7,37.4-14.1s13.1-22.3,13.1-38.8v-5.9c0-16.4-4.4-29.3-13.1-38.7s-21.2-14.1-37.4-14.1h-59.5V569h59.5c11.6,0,20.2,3.5,25.9,10.3s8.5,16.1,8.5,27.6Zm-126.8,0c0,11.5-2.8,20.7-8.5,27.6s-14.4,10.3-25.9,10.3h-40.2v14.3h40.2c16.2,0,28.6-4.7,37.4-14.1s13.1-22.3,13.1-38.8v-5.9c0-16.4-4.4-29.3-13.1-38.7s-21.2-14.1-37.4-14.1h-40.2V569h40.2c11.5,0,20.2,3.5,25.9,10.3s8.5,16.1,8.5,27.6Zm-220.4-2.5c0,5.2-.9,9.4-2.8,12.6s-5.5,4.8-10.9,4.8-9.2-1.4-11.1-4.2-2.9-6.6-2.9-11.5V579.2h-14.9v34.4c0,8.9,2.2,15.9,6.5,21s11.8,7.6,22.4,7.6c19.1,0,28.6-10.1,28.6-30.3V606h-14.9Zm-81.4,2.5c0,11.5-2.8,20.7-8.5,27.6s-14.4,10.3-26,10.3H1552l18.2-41.6L1552,569h36.4c11.6,0,20.3,3.5,26,10.3s8.5,16.1,8.5,27.6Zm-89.8-59.4V565l20.4,45.4L1533.1,656v10.3h55.3c16.3,0,28.7-4.7,37.5-14.1s13-22.3,13-38.8v-5.9c0-16.4-4.3-29.3-13-38.7s-21.2-14.1-37.5-14.1Zm-82,64.5a9.3,9.3,0,0,0,6.4-2.5,8.9,8.9,0,0,0-6.4-15.2,8.2,8.2,0,0,0-6.2,2.6,9.2,9.2,0,0,0,0,12.6,8.9,8.9,0,0,0,6.2,2.5M1428,573.3l71.6,37.1-71.6,37Zm-16,93h15l87.5-46.8v-18L1427,554.7h-15Zm-27.9-111.5h-16.7v18.6h16.7Zm-99.5,75.4h13.9V591h-13.9Zm8.3-77.9c-8.8,0-16.3,1.7-22.6,5.2a38.9,38.9,0,0,0-14.6,13.1V554.7h-16v45.2h14a113.5,113.5,0,0,1,5.9-14.6c2.2-4.2,6-8.4,11.5-12.6s12.8-6.2,21.8-6.2c11.9,0,20.6,3.7,25.9,11.1s8,17.2,8,29.3v7.2c0,12.2-2.6,22-8,29.4s-14,11.2-25.9,11.2c-9,0-16.3-2.1-21.8-6.3s-9.3-8.4-11.5-12.7a104.4,104.4,0,0,1-5.9-14.7h-14v45.3h16V650.8a37.1,37.1,0,0,0,14.6,12.9c6.4,3.4,13.9,5.1,22.6,5.1,16.5,0,29-5,37.4-15s12.6-23.5,12.6-40.4v-5.9q0-25.3-12.6-40.2c-8.4-10-20.9-15-37.4-15m-167.4,54.6c0-11.5,2.9-20.7,8.6-27.6S1148.4,569,1160,569h19.6V554.7H1160c-16.2,0-28.7,4.7-37.4,14.1s-13.1,22.3-13.1,38.7v5.9c0,16.5,4.3,29.4,13.1,38.8s21.2,14.1,37.4,14.1h59.4V652H1160c-11.6,0-20.3-3.5-25.9-10.3s-8.6-16.1-8.6-27.6ZM974.7,579.2H927.8v13.1h28.3L926.7,630v11.7h48.5V628.5H945l29.7-37.9ZM824.2,652l16.2-34.8h12.4v16.3h13.8V617.3c5.6.3,10,1,13.1,2.4a11.9,11.9,0,0,1,6.4,5.8,24,24,0,0,1,1.8,10.1c0,4.1-.8,7.4-2.3,9.8s-4.2,4-8,5a66.3,66.3,0,0,1-16.2,1.6Zm37.2-83c7,0,12.4.5,16.2,1.6s6.5,2.7,8,5,2.3,5.6,2.3,9.8-.6,7.4-1.8,9.8a11.2,11.2,0,0,1-6.3,5.3q-4.5,1.8-13.2,2.1v-15H852.8v15.2h-13L824.2,569ZM886,610.1c12-2.2,17.9-10.4,17.9-24.7,0-7.4-1.3-13.4-4.1-17.8s-7.2-7.7-13.3-9.8-14.5-3.1-25.1-3.1H806.8V565l18.1,37.8H806.8v14.4h18.6L806.8,656v10.3h54.6c10.6,0,18.9-1,25.1-3.1s10.5-5.4,13.3-9.8,4.1-10.4,4.1-17.8-1.4-12.4-4.2-17-7.4-7.4-13.7-8.5m-115.1,2.3c0,6-1.4,10.1-4.2,12.4s-6.4,3.5-10.9,3.5H733.4v13.4h22.8c19.7,0,29.5-9.8,29.5-29.3v-4.2c0-19.4-9.8-29-29.5-29H733.4v13.3h22.4c10,0,15.1,5.2,15.1,15.7Zm-118.6,6.8a8.9,8.9,0,0,0,6.3-2.5A8.9,8.9,0,0,0,646,604.1a8.8,8.8,0,0,0,6.3,15.1m-23.1-45.9,71.6,37.1-71.6,37Zm-16.1,93h15l87.5-46.8v-18l-87.5-46.8h-15ZM449.5,593.9q-11.7,0-16.8,6V579.2H417.9v62.5h14.8V621.6c0-4.7.9-8.3,2.6-11s4.9-4.1,9.8-4.1,6.6,1.1,8.2,3.3,2.2,5.7,2.2,10.6v21.3h14.9v-23c0-16.6-7-24.8-20.9-24.8M344.2,552.3q-26.6,0-41.3,18.9l-26-19.4v19.8l18.7,12c-8.4,18.2-12.7,45.8-12.7,82.7H299q0-34.5,4.3-56.2c2.9-14.6,7.6-25.4,14.2-32.7s15.5-10.9,26.7-10.9,20.8,3.4,26.4,10.3,8.4,16.7,8.4,29.4v11.6c0,12.1-1.9,21.2-5.8,27.5s-10.4,9.4-19.7,9.4c-7.3,0-12.7-1.7-16.3-4.9s-5.5-8.3-5.5-15.1c0-10.7,3.4-17.3,10.2-19.7v18.5h13.8V587.6H341.9v15.7c-8.4.7-14.7,3.9-19,9.6s-6.5,13-6.5,21.8c0,11.2,3.2,19.6,9.6,25.4s15.6,8.7,27.5,8.7c14.7,0,25.3-4.3,31.8-13s9.8-21.7,9.8-39.1v-9.3c0-17.5-4.2-31-12.5-40.6s-21.1-14.5-38.4-14.5m-88.5,26.9H241.9v62.5h13.8Zm-52.6,34.9c0,11.5-2.9,20.7-8.6,27.6S180.2,652,168.6,652H149v14.3h19.6c16.2,0,28.7-4.7,37.4-14.1s13.1-22.3,13.1-38.8v-5.9c0-16.4-4.4-29.3-13.1-38.7s-21.2-14.1-37.4-14.1H109.2V569h59.4c11.6,0,20.2,3.5,25.9,10.3s8.6,16.1,8.6,27.6Z" fill="#dc6413"/><path d="M1109,365a20.3,20.3,0,0,0,5.1,1.7,29.9,29.9,0,0,0,5.7.6,18.1,18.1,0,0,0,6.3-1,11,11,0,0,0,4.9-3.2,7.8,7.8,0,0,0,1.9-5.5c0-2.8-.8-4.9-2.4-6.2s-3.8-2.2-6.7-2.4l-3.6-.3a11.6,11.6,0,0,1-3.6-.9,2.1,2.1,0,0,1-1.2-2.1,2.7,2.7,0,0,1,1.5-2.4,9,9,0,0,1,4.1-.8,17.7,17.7,0,0,1,5.4.8,22.8,22.8,0,0,1,5.1,2.1v-6.5a17.1,17.1,0,0,0-4.7-1.7,30.5,30.5,0,0,0-6-.6,16.8,16.8,0,0,0-6,1,9.8,9.8,0,0,0-4.5,3.1,7.6,7.6,0,0,0-1.7,5.2c0,5.2,2.9,8.1,8.9,8.7l3.7.4a7.1,7.1,0,0,1,3.5.9,2.5,2.5,0,0,1,1.2,2.3,2.6,2.6,0,0,1-1.6,2.5,8.2,8.2,0,0,1-4.2.9,24.5,24.5,0,0,1-11.1-2.7Zm-18.6-22.5a5.4,5.4,0,0,1,4.3,1.7,8.3,8.3,0,0,1,1.5,5.4h-11.5c.1-4.7,2-7.1,5.7-7.1m0-5.9a15.3,15.3,0,0,0-6.9,1.6,12.2,12.2,0,0,0-4.6,4.7,15.6,15.6,0,0,0-1.7,7.4v3.5c0,4.4,1.3,7.7,3.7,10.1s6,3.5,10.5,3.5a28,28,0,0,0,6.3-.6,18.3,18.3,0,0,0,5.3-2.1V359a21,21,0,0,1-5,1.9,29.7,29.7,0,0,1-5.4.4q-7.5,0-7.8-6.6h18.9v-4.8q0-6.4-3.6-9.9a14,14,0,0,0-9.7-3.4m-25.8,17.7a7.8,7.8,0,0,1-1.7,5.4,5.3,5.3,0,0,1-4.5,1.9,5.7,5.7,0,0,1-4.6-2.1,7.3,7.3,0,0,1-1.9-5.2v-4.6a6.9,6.9,0,0,1,1.9-5.2,5.6,5.6,0,0,1,4.5-2,5.9,5.9,0,0,1,4.6,1.8,8.1,8.1,0,0,1,1.7,5.4Zm-4.3-17.7a9.7,9.7,0,0,0-8.4,4.2v-3.4h-7.3v41.1h7.3V363.4a9.6,9.6,0,0,0,8.2,4c3.9,0,6.8-1.1,8.9-3.4s3.2-5.6,3.2-10v-4c0-4.2-1-7.5-3.1-9.8s-5-3.6-8.8-3.6M1023.4,362c-2.9,0-4.4-1.2-4.4-3.6s.5-2.6,1.4-3.1a10.6,10.6,0,0,1,4.5-.7h5v.8q0,3.6-1.8,5.1a7.3,7.3,0,0,1-4.7,1.5m1.2-25.4a19.7,19.7,0,0,0-11.2,3.1v6.7a18.4,18.4,0,0,1,4.8-2.5,17.7,17.7,0,0,1,5.2-.7,9.4,9.4,0,0,1,4.3.8,4.2,4.2,0,0,1,1.8,2.2,10.5,10.5,0,0,1,.4,3.4H1024c-8.1,0-12.2,3.1-12.2,9.2a8,8,0,0,0,2.6,6.3c1.6,1.5,4,2.3,7.1,2.3s6.7-1.3,8.4-4v3.2h7.4V348.3a12.9,12.9,0,0,0-2.8-8.6c-1.8-2-5.1-3.1-9.9-3.1m-28.6,0a10.2,10.2,0,0,0-9.1,4.7V326h-7.4v40.6h7.4V350.7a8.2,8.2,0,0,1,1.7-5.5,5.8,5.8,0,0,1,4.6-2,5.2,5.2,0,0,1,4.2,1.8,8.3,8.3,0,0,1,1.5,5.4v16.2h7.3V348.4c0-3.8-.8-6.7-2.6-8.7s-4.2-3.1-7.6-3.1M949.8,365a18.2,18.2,0,0,0,5,1.7,30.9,30.9,0,0,0,5.8.6,18.9,18.9,0,0,0,6.3-1,10.7,10.7,0,0,0,4.8-3.2,7.8,7.8,0,0,0,1.9-5.5c0-2.8-.8-4.9-2.3-6.2a11.1,11.1,0,0,0-6.8-2.4l-3.6-.3a11.6,11.6,0,0,1-3.6-.9,2.2,2.2,0,0,1-1.1-2.1,2.8,2.8,0,0,1,1.4-2.4,9.5,9.5,0,0,1,4.2-.8,17.5,17.5,0,0,1,5.3.8,22.8,22.8,0,0,1,5.1,2.1v-6.5a16,16,0,0,0-4.7-1.7,29.1,29.1,0,0,0-6-.6,17.2,17.2,0,0,0-6,1,11,11,0,0,0-4.5,3.1,8.1,8.1,0,0,0-1.7,5.2c0,5.2,3,8.1,8.9,8.7l3.8.4a7.7,7.7,0,0,1,3.5.9,2.4,2.4,0,0,1,1.1,2.3,2.6,2.6,0,0,1-1.5,2.5,8.9,8.9,0,0,1-4.3.9,24.1,24.1,0,0,1-11-2.7Zm-28.1-28.4a10,10,0,0,0-9,4.7V326h-7.4v40.6h7.4V350.7c0-2.4.5-4.2,1.7-5.5a5.7,5.7,0,0,1,4.6-2,5.1,5.1,0,0,1,4.1,1.8,8.3,8.3,0,0,1,1.6,5.4v16.2H932V348.4c0-3.8-.9-6.7-2.6-8.7s-4.3-3.1-7.7-3.1m-30.3,17.7c0,2.4-.5,4.2-1.6,5.4a5.5,5.5,0,0,1-4.5,1.9,5.9,5.9,0,0,1-4.7-2.1,7.7,7.7,0,0,1-1.8-5.2v-4.6a7.3,7.3,0,0,1,1.8-5.2,5.8,5.8,0,0,1,4.6-2,5.7,5.7,0,0,1,4.5,1.8,8.1,8.1,0,0,1,1.7,5.4Zm-4.3-17.7a9.4,9.4,0,0,0-8.3,4.2v-3.4h-7.4v41.1h7.4V363.4a9.4,9.4,0,0,0,8.1,4c3.9,0,6.9-1.1,9-3.4s3.1-5.6,3.1-10v-4c0-4.2-1-7.5-3-9.8s-5-3.6-8.9-3.6m-34.8,22.5-7.4-21.7h-7.8l11.7,30.5L845,378.5h7.4l4-12.1,10.7-29h-7.6Zm-29.3-.3c0,3,.7,5.2,2.1,6.5s3.4,2.1,6.3,2.1a15.1,15.1,0,0,0,4.4-.6v-6a7,7,0,0,1-2.7.4,2.4,2.4,0,0,1-2.2-.9,7,7,0,0,1-.6-3.5V326H823ZM801.8,361a5.5,5.5,0,0,1-4.5-1.8c-1.1-1.2-1.6-2.9-1.6-5.3v-4.4c0-2.4.5-4.1,1.6-5.3a6.2,6.2,0,0,1,4.6-1.7,6,6,0,0,1,4.2,1.6,8,8,0,0,1,2.2,4.6v5a7.7,7.7,0,0,1-1.9,5.2,5.7,5.7,0,0,1-4.6,2.1m6.5-20.3a9.9,9.9,0,0,0-8.4-4.1c-3.9,0-6.8,1.2-8.8,3.6s-3,5.6-3,9.8v3.4c0,4.4,1,7.8,3,10s4.9,3.4,8.8,3.4a9.7,9.7,0,0,0,8.4-4.4v2.4a8.6,8.6,0,0,1-2,6.1q-1.8,2.1-6.3,2.1a31.5,31.5,0,0,1-5.2-.5,24.4,24.4,0,0,1-5-1.6v6.3a25.7,25.7,0,0,0,4.7,1.5,29.2,29.2,0,0,0,5.4.5c5,0,8.9-1.3,11.6-3.8s4.1-5.9,4.1-10.4V337.4h-7.3ZM747.9,365a18.2,18.2,0,0,0,5,1.7,30.9,30.9,0,0,0,5.8.6,18.9,18.9,0,0,0,6.3-1,10.7,10.7,0,0,0,4.8-3.2,7.8,7.8,0,0,0,1.9-5.5c0-2.8-.7-4.9-2.3-6.2a11,11,0,0,0-6.7-2.4l-3.6-.3a10.2,10.2,0,0,1-3.6-.9,2.1,2.1,0,0,1-1.2-2.1,2.8,2.8,0,0,1,1.4-2.4,9.5,9.5,0,0,1,4.2-.8,17.1,17.1,0,0,1,5.3.8,19.5,19.5,0,0,1,5.1,2.1v-6.5a16,16,0,0,0-4.7-1.7,29.1,29.1,0,0,0-6-.6,17.2,17.2,0,0,0-6,1,11,11,0,0,0-4.5,3.1,8.1,8.1,0,0,0-1.7,5.2c0,5.2,3,8.1,8.9,8.7l3.8.4a7.7,7.7,0,0,1,3.5.9,2.5,2.5,0,0,1,1.2,2.3,2.7,2.7,0,0,1-1.6,2.5,8.9,8.9,0,0,1-4.3.9,24.1,24.1,0,0,1-11-2.7Zm-14.1-28.4c-4.7,0-8.2,1.2-10.7,3.7s-3.6,5.7-3.6,10v3.5c0,4.3,1.2,7.7,3.6,10.1s5.9,3.5,10.3,3.5a16.3,16.3,0,0,0,9.1-2.3V359a16.3,16.3,0,0,1-8.4,2.4,6.9,6.9,0,0,1-5.2-1.9,7.5,7.5,0,0,1-1.9-5.4v-4a7.7,7.7,0,0,1,1.9-5.6,7.3,7.3,0,0,1,5.3-1.9,15.6,15.6,0,0,1,8.5,2.5v-6.5a19.2,19.2,0,0,0-8.9-2m-20.5-11.9h-7.5v7.7h7.5Zm-.1,12.7h-7.4v29.2h7.4Zm-21.3,16.9c0,2.4-.5,4.2-1.6,5.4a5.5,5.5,0,0,1-4.5,1.9,5.9,5.9,0,0,1-4.7-2.1,7.7,7.7,0,0,1-1.8-5.2v-4.6a7.3,7.3,0,0,1,1.8-5.2,5.9,5.9,0,0,1,4.6-2,6,6,0,0,1,4.6,1.8,8.7,8.7,0,0,1,1.6,5.4Zm-4.3-17.7a9.4,9.4,0,0,0-8.3,4.2V326h-7.4v40.6h7.4v-3.7a9.5,9.5,0,0,0,8.3,4.5c3.9,0,6.9-1.1,8.9-3.4s3-5.6,3-10v-4c0-4.2-1-7.5-3-9.8s-5-3.6-8.9-3.6M650.7,362c-2.9,0-4.4-1.2-4.4-3.6s.5-2.6,1.5-3.1a9.8,9.8,0,0,1,4.4-.7h5v.8q0,3.6-1.8,5.1a7.2,7.2,0,0,1-4.7,1.5m1.3-25.4a19.5,19.5,0,0,0-11.2,3.1v6.7a18.4,18.4,0,0,1,4.8-2.5,17,17,0,0,1,5.1-.7,9.1,9.1,0,0,1,4.3.8,3.5,3.5,0,0,1,1.8,2.2,10.5,10.5,0,0,1,.4,3.4h-5.9c-8.1,0-12.1,3.1-12.1,9.2a7.9,7.9,0,0,0,2.5,6.3,10.3,10.3,0,0,0,7.1,2.3c3.9,0,6.7-1.3,8.4-4v3.2h7.4V348.3c0-3.6-.9-6.5-2.7-8.6s-5.1-3.1-9.9-3.1m-28.5,22.2c0,3,.7,5.2,2.1,6.5s3.5,2.1,6.3,2.1a14.6,14.6,0,0,0,4.4-.6v-6a6.2,6.2,0,0,1-2.6.4c-1.1,0-1.9-.3-2.2-.9a7,7,0,0,1-.6-3.5V326h-7.4Zm-17.1,0c0,3,.7,5.2,2.1,6.5s3.5,2.1,6.3,2.1a15.1,15.1,0,0,0,4.4-.6v-6a6.5,6.5,0,0,1-2.6.4,2.5,2.5,0,0,1-2.3-.9,7.3,7.3,0,0,1-.5-3.5V326h-7.4Zm-19,.3-7.3-21.7h-7.8l11.6,30.5-3.8,10.6h7.5l4-12.1,10.7-29h-7.6Zm-46.3,5.1a26.1,26.1,0,0,0,12.6,3,19.8,19.8,0,0,0,11.3-3.1c2.9-2.1,4.4-5.3,4.4-9.4s-.9-6-2.8-8a14.8,14.8,0,0,0-8.4-3.6l-3.8-.5a10.4,10.4,0,0,1-4.8-1.5c-.9-.8-1.3-2-1.3-3.8,0-3.6,2.5-5.5,7.6-5.5a22.2,22.2,0,0,1,6.1,1,22.6,22.6,0,0,1,5.6,2.8v-7.3a15.1,15.1,0,0,0-5.3-2.2,30.2,30.2,0,0,0-6.8-.7,19.7,19.7,0,0,0-7.5,1.3,11.1,11.1,0,0,0-7.4,10.9,11.6,11.6,0,0,0,2.6,7.9,12.7,12.7,0,0,0,7.7,3.6l4,.5c2.6.3,4.3.8,5.3,1.6a4.7,4.7,0,0,1,1.5,3.9,5,5,0,0,1-1.9,4.2,9.1,9.1,0,0,1-5.6,1.5,24.4,24.4,0,0,1-13.1-3.9Zm-24.7-26.8H509v29.2h7.4V353.2a10.4,10.4,0,0,1,2.1-6.8,6.5,6.5,0,0,1,5.4-2.6l1.5.2v-7.4a9.1,9.1,0,0,0-5.2,1.5,11.2,11.2,0,0,0-3.8,4Zm-26.9,5.1a5.4,5.4,0,0,1,4.3,1.7,8.3,8.3,0,0,1,1.5,5.4H483.8c.1-4.7,2-7.1,5.7-7.1m0-5.9a15.3,15.3,0,0,0-6.9,1.6,11.6,11.6,0,0,0-4.6,4.7,15.6,15.6,0,0,0-1.7,7.4v3.5c0,4.4,1.3,7.7,3.7,10.1s6,3.5,10.5,3.5a28,28,0,0,0,6.3-.6,18.3,18.3,0,0,0,5.3-2.1V359a21,21,0,0,1-5,1.9,29.7,29.7,0,0,1-5.4.4q-7.5,0-7.8-6.6h18.9v-4.8q0-6.4-3.6-9.9a14,14,0,0,0-9.7-3.4m-19.4-11.9h-7.5v7.7h7.5Zm-.1,12.7h-7.3v29.2H470Zm-21.2,0h-7.4v29.2h7.4V353.2a10.4,10.4,0,0,1,2.1-6.8,6.5,6.5,0,0,1,5.4-2.6l1.5.2v-7.4a9.6,9.6,0,0,0-5.3,1.5,11.9,11.9,0,0,0-3.7,4Zm-21.3,0h-7.4v29.2h7.4V353.2a10.4,10.4,0,0,1,2.1-6.8,6.5,6.5,0,0,1,5.4-2.6l1.5.2v-7.4a9.1,9.1,0,0,0-5.2,1.5,11.2,11.2,0,0,0-3.8,4ZM398.9,362c-2.9,0-4.4-1.2-4.4-3.6s.5-2.6,1.5-3.1a10.3,10.3,0,0,1,4.5-.7h4.9v.8q0,3.6-1.8,5.1a7.2,7.2,0,0,1-4.7,1.5m1.3-25.4a19.5,19.5,0,0,0-11.2,3.1v6.7a18.4,18.4,0,0,1,4.8-2.5,17,17,0,0,1,5.1-.7,9.1,9.1,0,0,1,4.3.8,3.5,3.5,0,0,1,1.8,2.2,10.5,10.5,0,0,1,.4,3.4h-5.9c-8.1,0-12.1,3.1-12.1,9.2a7.9,7.9,0,0,0,2.5,6.3,10.4,10.4,0,0,0,7.1,2.3c4,0,6.8-1.3,8.4-4v3.2h7.4V348.3c0-3.6-.9-6.5-2.7-8.6s-5.1-3.1-9.9-3.1m-16.9-8.8a13,13,0,0,0-4.6-1.8,24.5,24.5,0,0,0-6.2-.7,18.5,18.5,0,0,0-9.3,2.2,14.3,14.3,0,0,0-6.1,6.3,21.9,21.9,0,0,0-2.2,10.2v5a20.9,20.9,0,0,0,2.2,10.1,14.6,14.6,0,0,0,6.1,6.2,19.2,19.2,0,0,0,9.2,2.1,38.1,38.1,0,0,0,5.9-.5,18,18,0,0,0,4.8-1.6v-6.8a14.4,14.4,0,0,1-4.7,1.7,32.9,32.9,0,0,1-5.4.5c-6.9,0-10.4-3.8-10.4-11.3v-5.7c0-3.9.9-6.8,2.7-8.8a10.1,10.1,0,0,1,7.6-2.9,22,22,0,0,1,5.8.8,13.2,13.2,0,0,1,4.6,2.3Zm-47.7,33.4a4,4,0,0,1-3.1-1.1c-.7-.7-1-1.9-1-3.7V343.1h7.1v-5.7h-7.1V329h-7.3v8.4h-4.7v5.7h4.7v14.4c0,3.2.8,5.6,2.5,7.3s4.1,2.6,7.3,2.6a11.8,11.8,0,0,0,2.6-.2l2.4-.4v-6a10.9,10.9,0,0,1-3.4.4m-28.4-24.6c-4.7,0-8.2,1.2-10.7,3.7s-3.7,5.7-3.7,10v3.5c0,4.3,1.3,7.7,3.7,10.1s5.8,3.5,10.3,3.5a16.6,16.6,0,0,0,9.1-2.3V359a16.3,16.3,0,0,1-8.4,2.4,6.9,6.9,0,0,1-5.2-1.9,7.1,7.1,0,0,1-1.9-5.4v-4c0-2.5.6-4.4,1.9-5.6a7.3,7.3,0,0,1,5.3-1.9,15.6,15.6,0,0,1,8.5,2.5v-6.5a19.2,19.2,0,0,0-8.9-2m-32.6,5.9a5.4,5.4,0,0,1,4.3,1.7,9.6,9.6,0,0,1,1.5,5.4H268.9c.1-4.7,2-7.1,5.7-7.1m0-5.9a15.3,15.3,0,0,0-6.9,1.6,11.6,11.6,0,0,0-4.6,4.7,15.6,15.6,0,0,0-1.7,7.4v3.5c0,4.4,1.2,7.7,3.7,10.1s5.9,3.5,10.5,3.5a29.3,29.3,0,0,0,6.3-.6,19.5,19.5,0,0,0,5.3-2.1V359a21,21,0,0,1-5,1.9,29.7,29.7,0,0,1-5.4.4c-5,0-7.6-2.2-7.9-6.6h18.9v-4.8q0-6.4-3.6-9.9a13.7,13.7,0,0,0-9.6-3.4m-25.9.8h-7.3v29.2h7.3V353.2a11.7,11.7,0,0,1,2.1-6.8,6.8,6.8,0,0,1,5.5-2.6l1.5.2v-7.4a9.4,9.4,0,0,0-5.3,1.5,12.2,12.2,0,0,0-3.8,4Zm-21.3,0h-7.3v29.2h7.3V353.2a11.7,11.7,0,0,1,2.1-6.8,6.8,6.8,0,0,1,5.5-2.6l1.5.2v-7.4a9.6,9.6,0,0,0-5.3,1.5,13.3,13.3,0,0,0-3.8,4Zm-33.8,12.8a8.7,8.7,0,0,1,1.7-5.8,5.6,5.6,0,0,1,4.6-1.9,5.8,5.8,0,0,1,4.7,1.9,8.7,8.7,0,0,1,1.7,5.8v3.6a8.7,8.7,0,0,1-1.7,5.8,5.6,5.6,0,0,1-4.7,2,5.4,5.4,0,0,1-4.6-2,8.7,8.7,0,0,1-1.7-5.8Zm-7.5,3.6a14.6,14.6,0,0,0,1.8,7.5,12,12,0,0,0,4.9,4.6,17.8,17.8,0,0,0,14.3,0,11.4,11.4,0,0,0,4.9-4.6,14.6,14.6,0,0,0,1.9-7.5v-3.5a15,15,0,0,0-1.9-7.6,12.1,12.1,0,0,0-4.9-4.6,17.8,17.8,0,0,0-14.3,0,12.7,12.7,0,0,0-4.9,4.6,15,15,0,0,0-1.8,7.6Zm-13.7-17.2c-4.6,0-8.2,1.2-10.6,3.7s-3.7,5.7-3.7,10v3.5c0,4.3,1.2,7.7,3.6,10.1s5.9,3.5,10.3,3.5a16.3,16.3,0,0,0,9.1-2.3V359a16.3,16.3,0,0,1-8.4,2.4,6.9,6.9,0,0,1-5.2-1.9,7.5,7.5,0,0,1-1.8-5.4v-4c0-2.5.6-4.4,1.8-5.6a7.3,7.3,0,0,1,5.3-1.9,15.6,15.6,0,0,1,8.5,2.5v-6.5a19.2,19.2,0,0,0-8.9-2m-30.6,0a10.3,10.3,0,0,0-9.1,4.7v-3.9h-7.4v29.2h7.4V350.7a8.2,8.2,0,0,1,1.7-5.5,5.8,5.8,0,0,1,4.6-2,5.2,5.2,0,0,1,4.2,1.8,8.3,8.3,0,0,1,1.5,5.4v16.2h7.4V348.4q0-5.7-2.7-8.7c-1.7-2.1-4.2-3.1-7.6-3.1m-32.4,30h7.7V326h-7.7Z" fill="#522651"/><path d="M1997.2,193.7h51V182.4h-34L2048,138v-7.1h-50.8v11.4h33.9l-33.9,44.5Zm-36.5,57.8h14.8v-12h-14.8c-45.6,0-64.2-9-64.2-50.2,0-29.6,13.8-46.4,39.7-46.4h4.9c17,0,27.9,9.6,27.9,25.3,0,12.3-7.5,20.3-19,20.3-5.9,0-10.3-1.4-13.3-3.9l-4.6,12.1a38.9,38.9,0,0,0,17.4,3.7c19.5,0,32.8-13.5,32.8-31.7,0-22.3-16.2-37.8-38.8-37.8H1936c-33.4,0-52.7,21.9-52.7,58.4,0,50.5,23,62.2,77.4,62.2m-154.7-31h12.6V185.4H1806Zm4.4,31h1c37.8,0,52.2-15.6,52.2-47.2,0-29.9-15.9-45.2-58.8-45.2H1741v12h67.8c28.4,0,41.1,11.3,41.1,33.2,0,25.4-9.6,35.2-38.5,35.2h-1Zm-184.6,0h22.9c46.8,0,72.3-14.7,72.3-60.3s-25.5-60.3-72.3-60.3h-22.9v12h24.6c41.2,0,57.1,11.9,57.1,48.3s-15.9,48.3-57.1,48.3h-24.6ZM1536.6,195c15.5,0,24.8-9.9,24.8-27.1v-4.3h-12.6v3.7c0,10.9-4.4,16.3-12.2,16.3s-12-4.9-12-18.3V130.9h-12.7v35.9c0,17.8,8.3,28.2,24.7,28.2m-127.3,44.5,21.6-47.5v-1.7l-21.6-47.4h15.5c44.1,0,55.4,6.9,55.4,48.3s-11,48.3-55.4,48.3Zm-19,12h34.5c51.7,0,69.1-11.2,69.1-60.3s-18.1-60.3-69.1-60.3h-34.5v1.7l26.9,58.6-26.9,58.6Zm-83.4-50.4a10,10,0,1,0-10.1-9.9,10.1,10.1,0,0,0,10.1,9.9m-23.6,30.6V150.6l70.9,40.6Zm-13.2,21.4h1.7l103.7-60.8V190l-103.7-61h-1.7Zm-46.8-137.8a10,10,0,0,0,10-9.9,10.1,10.1,0,0,0-20.1,0,10,10,0,0,0,10.1,9.9m-102.5,93.1h12.7V173.3h-12.7ZM1096,251.5h13.1V237.8h19.6c31.1,0,49.3-16.7,49.3-46s-18-46.7-49.3-46.7h-19.6V130.9H1096V157h32.6c22.8,0,36.3,12.7,36.3,34.7s-13.5,34.2-36.3,34.2H1096Zm-82.1,0h63.8v-12h-67.9c-28.3,0-41-11.4-41-33.3,0-25.3,9.6-35.1,38.5-35.1h1v-12h-1c-37.8,0-52.2,15.5-52.2,47.1,0,29.9,15.9,45.3,58.8,45.3M838.1,193.7h51V182.4h-34L888.9,138v-7.1H838.1v11.4H872l-33.9,44.5Zm-91.9,45.8,18.7-42.3h10v11.5h12.7V197.6c13.8,1.3,20.8,8.9,20.8,22.1s-5.5,19.8-26.2,19.8Zm18.7-54.4-18.7-42.2h36c21.1,0,26.2,6.5,26.2,19.9s-7,20.4-20.8,21.9V173.6H774.9v11.5Zm-38,66.4h55.3c28.2,0,39.3-9.7,39.3-30.1,0-15.5-5.4-24.7-17.2-30.2,11.8-5.3,17.2-14.7,17.2-30.3,0-20.6-11.3-30-39.3-30H726.9v1.7l24,52.5H729.3v12.1h21.6l-24,52.6ZM664,193.7h8.9c27.7,0,39.2-9.8,39.2-32.9,0-20.6-12.5-29.9-37.5-29.9H664v11.4h10.8c17.5,0,24.6,6,24.6,18.5,0,15.2-5.7,21.6-27.8,21.6H664Zm-81.8,7.4a10,10,0,1,0-10.1-9.9,10.1,10.1,0,0,0,10.1,9.9m-23.6,30.6V150.6l70.9,40.6Zm-13.2,21.4h1.7l103.7-60.8V190L547.1,129h-1.7Zm-114-59.4h12.7V163.5c4-2.1,6.9-3.1,11.3-3.1,6.6,0,9.4,3.1,9.4,11.2v22.1h12.9v-27c0-10.8-7.3-17.9-18.8-17.9a36.1,36.1,0,0,0-14.8,3.3V130.9H431.4ZM368.7,228h12.7V192.8H368.7v10.9h-.1c-15.6,0-24.4,9.1-24.4,24.6s11.7,25.2,31.8,25.2c22.3,0,39-15.2,39-41.2,0-32-19.8-47.5-55-47.5a64.8,64.8,0,0,0-42.1,15.4l-21.6-20.3-8.1,8.6L309.1,189c-12.8,15.3-20.4,36.6-20.4,59.7v2.8h13.2v-6.8c0-35.5,22.8-67.9,58.1-67.9,29,0,41.7,10.1,41.7,33.1v4.6c0,16.7-9.5,27-25.2,27-13.5,0-18.9-4.4-18.9-13.5s3.5-12.2,11.1-12.4ZM255.6,193.7h12.6V130.9H255.6Zm-73,57.8h1c37.9,0,52.2-15.6,52.2-47.2,0-29.9-15.9-45.2-58.8-45.2H113.2v12h67.9c28.4,0,41,11.3,41,33.2,0,25.4-9.6,35.2-38.5,35.2h-1Z" fill="#dc6413"/></g></svg>